<svg width="21" height="20" viewBox="0 0 21 20" fill="none" xmlns="http://www.w3.org/2000/svg">
<path d="M8.65002 2.26986L14.4066 14H2.89348L8.65002 2.26986Z" stroke="#222222" stroke-width="2"/>
<path d="M12.2132 9.27198C9.28385 10.277 9.28387 7.77734 5.21315 8.27198" stroke="#222222" stroke-width="1.25"/>
<path d="M19 1.625C19 1.27982 19.2798 1 19.625 1C19.9702 1 20.25 1.27982 20.25 1.625V14.375C20.25 14.7202 19.9702 15 19.625 15C19.2798 15 19 14.7202 19 14.375V1.625Z" fill="#222222"/>
<rect x="16.25" y="13.75" width="4" height="1.25" rx="0.625" fill="#222222"/>
<rect x="16.25" y="1" width="4" height="1.25" rx="0.625" fill="#222222"/>
<rect x="17.15" y="7.37988" width="3" height="1.25" rx="0.625" fill="#222222"/>
</svg>
