<svg width="18" height="21" viewBox="0 0 18 21" fill="none" xmlns="http://www.w3.org/2000/svg">
<path d="M14.2151 3.56008C13.4843 2.53008 12.649 1.57008 11.7093 0.710081C11.3439 0.370081 10.7279 0.690081 10.8323 1.17008C11.0307 2.11008 11.2395 3.35008 11.2395 4.46008C11.2395 6.52008 9.82999 8.19008 7.67919 8.19008C6.07131 8.19008 4.75577 7.26008 4.18153 5.93008C4.07712 5.73008 4.03536 5.61008 3.97272 5.39008C3.85787 4.97008 3.28362 4.84008 3.03305 5.21008C2.84511 5.48008 2.66762 5.75008 2.50057 6.04008C1.25811 8.08008 0.548141 10.4601 0.548141 13.0001C0.548141 17.4201 4.28594 21.0001 8.90076 21.0001C13.5156 21.0001 17.2534 17.4201 17.2534 13.0001C17.2534 9.51008 16.1258 6.27008 14.2151 3.56008ZM8.59798 18.0001C6.73952 18.0001 5.23605 16.6001 5.23605 14.8601C5.23605 13.2401 6.33233 12.1001 8.16991 11.7401C9.7047 11.4401 11.2813 10.8101 12.3775 9.82008C12.6699 9.56008 13.1502 9.68008 13.2337 10.0501C13.4738 11.0701 13.5991 12.1301 13.5991 13.2001C13.6095 15.8501 11.3648 18.0001 8.59798 18.0001Z" fill="#7FA1F6"/>
</svg>
