<svg width="45" height="44" viewBox="0 0 45 44" fill="none" xmlns="http://www.w3.org/2000/svg">
<path d="M42.2758 1.04119C40.8918 0.337861 39.2771 0.861451 37.8885 1.55573L35.3618 2.8191C35.1956 2.90221 35 2.78134 35 2.59549L35 1.5C35 0.947714 34.5523 0.5 34 0.5H30H20H1C0.447715 0.5 0 0.947715 0 1.5V25.5C0 31.025 4.475 35.5 10 35.5H25C30.525 35.5 35 31.025 35 25.5V22C35 19.7909 36.7909 18 39 18H40C42.775 18 45 15.75 45 13V5.5C45 3.54624 43.8971 1.86511 42.2758 1.04119ZM35 14V10.5V8.38304C35 6.66132 36.1017 5.13276 37.7351 4.5883L39.5 4C40.5159 3.74602 41.5 4.51439 41.5 5.56155V12.25C41.5 14.0449 40.0449 15.5 38.25 15.5H36.5C35.6716 15.5 35 14.8284 35 14ZM0 42.25C0 41.2835 0.783502 40.5 1.75 40.5H38.25C39.2165 40.5 40 41.2835 40 42.25C40 43.2165 39.2165 44 38.25 44H1.75C0.783501 44 0 43.2165 0 42.25Z" fill="#7FA1F7"/>
</svg>
