<svg width="17" height="15" viewBox="0 0 17 15" fill="none" xmlns="http://www.w3.org/2000/svg">
<path d="M13.8333 0C12.5433 0 11.5 1.04333 11.5 2.33333C11.5 3.72333 12.9733 5.64 13.58 6.37C13.7133 6.53 13.9567 6.53 14.09 6.37C14.6933 5.64 16.1667 3.72333 16.1667 2.33333C16.1667 1.04333 15.1233 0 13.8333 0ZM13.8333 3.16667C13.3733 3.16667 13 2.79333 13 2.33333C13 1.87333 13.3733 1.5 13.8333 1.5C14.2933 1.5 14.6667 1.87333 14.6667 2.33333C14.6667 2.79333 14.2933 3.16667 13.8333 3.16667Z" fill="#222222"/>
<path d="M3.5 3C1.565 3 0 4.565 0 6.5C0 8.585 2.21 11.46 3.12 12.555C3.32 12.795 3.685 12.795 3.885 12.555C4.79 11.46 7 8.585 7 6.5C7 4.565 5.435 3 3.5 3ZM3.5 7.75C2.81 7.75 2.25 7.19 2.25 6.5C2.25 5.81 2.81 5.25 3.5 5.25C4.19 5.25 4.75 5.81 4.75 6.5C4.75 7.19 4.19 7.75 3.5 7.75Z" fill="#222222"/>
<path d="M14.0255 7.08117C10.5255 7.08106 10.2754 8.08085 9.27541 10.581C8.27546 13.0811 7.02548 13.5807 3.52548 13.5807" stroke="#222222" stroke-width="0.75"/>
</svg>
