<svg width="32" height="32" viewBox="0 0 32 32" fill="none" xmlns="http://www.w3.org/2000/svg">
<g clip-path="url(#clip0)">
<path d="M32 16.2769C32 15.2322 31.91 14.182 31.7181 13.1543H16.3209V19.0719H25.1381C24.7722 20.9805 23.5966 22.6688 21.8751 23.7416V27.5813H27.1355C30.2245 24.9048 32 20.9522 32 16.2769Z" fill="#4285F4"/>
<path d="M16.3209 31.2911C20.7235 31.2911 24.4363 29.9303 27.1415 27.5813L21.8811 23.7417C20.4176 24.679 18.5282 25.2098 16.3269 25.2098C12.0682 25.2098 8.45734 22.5051 7.16174 18.8687H1.73344V22.8269C4.50457 28.0161 10.1488 31.2911 16.3209 31.2911Z" fill="#34A853"/>
<path d="M7.15575 18.8686C6.47196 16.9601 6.47196 14.8934 7.15575 12.9849V9.02661H1.73344C-0.581833 13.3688 -0.581833 18.4846 1.73344 22.8269L7.15575 18.8686Z" fill="#FBBC04"/>
<path d="M16.3209 6.63807C18.6482 6.60419 20.8974 7.4286 22.5829 8.94188L27.2435 4.55448C24.2924 1.94576 20.3756 0.511527 16.3209 0.5567C10.1488 0.5567 4.50457 3.83172 1.73344 9.02658L7.15574 12.9848C8.44534 9.34279 12.0622 6.63807 16.3209 6.63807Z" fill="#EA4335"/>
</g>
<defs>
<clipPath id="clip0">
<rect y="0.556763" width="32" height="30.7344" fill="white"/>
</clipPath>
</defs>
</svg>
