<svg width="22" height="19" viewBox="0 0 22 19" fill="none" xmlns="http://www.w3.org/2000/svg">
<path d="M12.26 1.00007C7.17003 0.860072 3.00003 4.95007 3.00003 10.0001H1.21003C0.760031 10.0001 0.540031 10.5401 0.860031 10.8501L3.65003 13.6501C3.85003 13.8501 4.16003 13.8501 4.36003 13.6501L7.15003 10.8501C7.46003 10.5401 7.24003 10.0001 6.79003 10.0001H5.00003C5.00003 6.10007 8.18003 2.95007 12.1 3.00007C15.82 3.05007 18.95 6.18007 19 9.90007C19.05 13.8101 15.9 17.0001 12 17.0001C10.39 17.0001 8.90003 16.4501 7.72003 15.5201C7.32003 15.2101 6.76003 15.2401 6.40003 15.6001C5.98003 16.0201 6.01003 16.7301 6.48003 17.0901C8.00003 18.2901 9.91003 19.0001 12 19.0001C17.05 19.0001 21.14 14.8301 21 9.74007C20.87 5.05007 16.95 1.13007 12.26 1.00007ZM11.75 6.00007C11.34 6.00007 11 6.34007 11 6.75007V10.4301C11 10.7801 11.19 11.1101 11.49 11.2901L14.61 13.1401C14.97 13.3501 15.43 13.2301 15.64 12.8801C15.85 12.5201 15.73 12.0601 15.38 11.8501L12.5 10.1401V6.74007C12.5 6.34007 12.16 6.00007 11.75 6.00007Z" fill="#7FA1F7"/>
</svg>
