<svg width="60" height="27" viewBox="0 0 60 27" fill="none" xmlns="http://www.w3.org/2000/svg">
<path d="M39 13L36.3407 12.7045C35.1518 12.5724 33.9543 12.8638 32.959 13.5273L31.9981 14.1679C31.8221 14.2853 31.5939 14.1245 31.6452 13.9192C31.81 13.2599 31.2319 12.6536 30.5655 12.7869L29.8166 12.9367C29.6073 12.9785 29.3921 12.982 29.1816 12.9469L27.175 12.6125C26.7603 12.5434 26.3417 12.7111 26.0894 13.0475C25.4262 13.9318 24.3066 14.3459 23.2276 14.1061L20.7312 13.5514C20.5799 13.5178 20.4223 13.5259 20.2753 13.5749C19.4766 13.8411 18.5981 13.6986 17.9246 13.1934L17.6913 13.0185C17.2501 12.6876 16.6919 12.5536 16.1486 12.6481L8.18252 14.0335C7.89931 14.0827 7.93533 14.5 8.22278 14.5H9H21.5H40.5C43.3771 14.5 45.5627 14.5 46.9968 14.5C47.1237 14.5 47.1312 14.3131 47.005 14.3005L44 14L55.6629 5.73875C55.8391 5.61395 55.8606 5.3606 55.7079 5.20793C55.5878 5.08783 55.3986 5.07179 55.26 5.16997L43.561 13.4568C43.5213 13.4849 43.4739 13.5 43.4252 13.5H43L48.8979 1.2127C48.9591 1.08527 48.9331 0.933115 48.8332 0.833167C48.6706 0.67061 48.3961 0.717779 48.2972 0.925279L42.3 13.5L39 13ZM10 23.5L-0.49048 14.9169C-0.661408 14.777 -0.562518 14.5 -0.341669 14.5H60.8184C61.0418 14.5 61.1392 14.7824 60.9633 14.9201L50 23.5L45.0607 26.9575C45.0212 26.9852 44.9741 27 44.9259 27H15.0741C15.0259 27 14.9788 26.9852 14.9393 26.9575L10 23.5Z" fill="#7FA1F7"/>
</svg>
