<svg width="22" height="27" viewBox="0 0 22 27" fill="none" xmlns="http://www.w3.org/2000/svg">
<path d="M11 4.66667V0.946667C11 0.346667 10.28 0.0533333 9.86666 0.48L4.8 5.53333C4.53333 5.8 4.53333 6.21333 4.8 6.48L9.85333 11.5333C10.28 11.9467 11 11.6533 11 11.0533V7.33333C15.9733 7.33333 19.9067 11.8933 18.8133 17.0533C18.1867 20.08 15.7333 22.52 12.72 23.1467C7.96 24.1467 3.72 20.88 3.08 16.4667C2.98666 15.8267 2.42666 15.3333 1.77333 15.3333C0.97333 15.3333 0.33333 16.04 0.439997 16.84C1.26666 22.6933 6.84 27.0267 13.1467 25.8C17.3067 24.9867 20.6533 21.64 21.4667 17.48C22.7867 10.64 17.5867 4.66667 11 4.66667Z" fill="white"/>
</svg>
