<svg width="16" height="22" viewBox="0 0 16 22" fill="none" xmlns="http://www.w3.org/2000/svg">
<path d="M10.49 4.47998C11.59 4.47998 12.49 3.57998 12.49 2.47998C12.49 1.37998 11.59 0.47998 10.49 0.47998C9.38999 0.47998 8.48999 1.37998 8.48999 2.47998C8.48999 3.57998 9.38999 4.47998 10.49 4.47998ZM7.31999 16.48L7.88999 13.98L9.98999 15.98V20.98C9.98999 21.53 10.44 21.98 10.99 21.98C11.54 21.98 11.99 21.53 11.99 20.98V15.34C11.99 14.79 11.77 14.27 11.37 13.89L9.88999 12.48L10.49 9.47998C11.56 10.72 13.11 11.61 14.85 11.89C15.45 11.98 15.99 11.5 15.99 10.89C15.99 10.4 15.63 9.98998 15.14 9.90998C13.62 9.65998 12.36 8.75998 11.69 7.57998L10.69 5.97998C10.29 5.37998 9.68999 4.97998 8.98999 4.97998C8.68999 4.97998 8.48999 5.07998 8.18999 5.07998L4.20999 6.75998C3.46999 7.07998 2.98999 7.79998 2.98999 8.60998V10.98C2.98999 11.53 3.43999 11.98 3.98999 11.98C4.53999 11.98 4.98999 11.53 4.98999 10.98V8.57998L6.78999 7.87998L5.18999 15.98L1.26999 15.18C0.729994 15.07 0.199994 15.42 0.0899944 15.96V16C-0.0200056 16.54 0.329994 17.07 0.869994 17.18L4.97999 18C6.03999 18.21 7.07999 17.54 7.31999 16.48Z" fill="#222222"/>
</svg>
