<svg width="20" height="20" viewBox="0 0 20 20" fill="none" xmlns="http://www.w3.org/2000/svg">
<path d="M17.6533 11.1546C17.5148 11.0463 17.4444 10.8733 17.4621 10.6984C17.485 10.4709 17.5 10.2404 17.5 10C17.5 9.75957 17.485 9.52914 17.4621 9.30163C17.4444 9.12669 17.5148 8.9537 17.6533 8.84539L19.54 7.37C19.73 7.22 19.78 6.95 19.66 6.73L17.66 3.27C17.57 3.11 17.4 3.02 17.22 3.02C17.16 3.02 17.1 3.03 17.05 3.05L14.8249 3.94361C14.6607 4.00954 14.4747 3.98277 14.3307 3.88002C13.9533 3.61081 13.5551 3.37756 13.1324 3.18386C12.9713 3.11002 12.8546 2.96226 12.8294 2.78681L12.49 0.42C12.46 0.18 12.25 0 12 0H8C7.75 0 7.54 0.18 7.51 0.42L7.17061 2.78681C7.14545 2.96226 7.02866 3.10996 6.86776 3.18431C6.44438 3.37994 6.04552 3.61811 5.66759 3.88444C5.52476 3.9851 5.34098 4.01023 5.17882 3.94511L2.95 3.05C2.89 3.03 2.83 3.02 2.77 3.02C2.6 3.02 2.43 3.11 2.34 3.27L0.34 6.73C0.21 6.95 0.27 7.22 0.46 7.37L2.3467 8.84539C2.48521 8.9537 2.5556 9.1267 2.53811 9.30165C2.51508 9.53206 2.5 9.76603 2.5 10C2.5 10.234 2.51508 10.4679 2.53811 10.6983C2.5556 10.8733 2.48521 11.0463 2.3467 11.1546L0.46 12.63C0.27 12.78 0.22 13.05 0.34 13.27L2.34 16.73C2.43 16.89 2.6 16.98 2.78 16.98C2.84 16.98 2.9 16.97 2.95 16.95L5.17509 16.0564C5.33926 15.9905 5.52533 16.0172 5.66935 16.12C6.04669 16.3892 6.44491 16.6224 6.86756 16.8161C7.02869 16.89 7.14545 17.0377 7.17061 17.2132L7.51 19.58C7.54 19.82 7.75 20 8 20H12C12.25 20 12.46 19.82 12.49 19.58L12.8294 17.2132C12.8546 17.0377 12.9713 16.89 13.1322 16.8157C13.5556 16.6201 13.9545 16.3819 14.3324 16.1156C14.4752 16.0149 14.659 15.9898 14.8212 16.0549L17.05 16.95C17.11 16.97 17.17 16.98 17.23 16.98C17.4 16.98 17.57 16.89 17.66 16.73L19.66 13.27C19.78 13.05 19.73 12.78 19.54 12.63L17.6533 11.1546ZM15.45 9.27C15.49 9.58 15.5 9.79 15.5 10C15.5 10.21 15.48 10.43 15.45 10.73L15.3447 11.58C15.3232 11.7538 15.3941 11.9262 15.5318 12.0344L16.2 12.56L16.9359 13.1323C17.1331 13.2857 17.1868 13.5611 17.0617 13.7774L16.797 14.2349C16.6725 14.4502 16.4087 14.5412 16.1779 14.4485L15.31 14.1L14.5326 13.7861C14.3697 13.7203 14.1842 13.7448 14.044 13.8508L13.37 14.36C12.94 14.68 12.53 14.92 12.12 15.09L11.3268 15.4118C11.1616 15.4788 11.0446 15.6286 11.0196 15.805L10.9 16.65L10.7632 17.5733C10.7269 17.8184 10.5165 18 10.2686 18H9.73456C9.48534 18 9.27417 17.8165 9.23944 17.5697L9.11 16.65L8.99036 15.805C8.96537 15.6286 8.84838 15.4788 8.68325 15.4118L7.89 15.09C7.46 14.91 7.06 14.68 6.66 14.38L5.9772 13.8548C5.83647 13.7465 5.6489 13.721 5.48439 13.7877L4.69 14.11L3.82212 14.4585C3.59135 14.5512 3.32754 14.4602 3.203 14.2449L2.93832 13.7874C2.81321 13.5711 2.86694 13.2957 3.06415 13.1423L3.8 12.57L4.4682 12.0444C4.60586 11.9362 4.67684 11.7638 4.6553 11.59L4.55 10.74C4.52 10.43 4.5 10.2 4.5 10C4.5 9.8 4.52 9.57 4.55 9.27L4.6553 8.42004C4.67684 8.24623 4.60586 8.07383 4.4682 7.96555L3.8 7.44L3.06415 6.86767C2.86694 6.71428 2.81321 6.43887 2.93832 6.22262L3.203 5.76509C3.32754 5.54983 3.59135 5.45881 3.82212 5.55148L4.69 5.9L5.46735 6.21393C5.63029 6.27973 5.8158 6.25517 5.956 6.14924L6.63 5.64C7.06 5.32 7.47 5.08 7.88 4.91L8.67325 4.58821C8.83838 4.52122 8.95537 4.37142 8.98036 4.19498L9.1 3.35L9.23678 2.42673C9.2731 2.18156 9.48354 2 9.73138 2H10.2554C10.5047 2 10.7158 2.18353 10.7506 2.43032L10.88 3.35L10.9996 4.19498C11.0246 4.37142 11.1416 4.52122 11.3068 4.58821L12.1 4.91C12.53 5.09 12.93 5.32 13.33 5.62L14.0128 6.14523C14.1535 6.25348 14.3411 6.27899 14.5056 6.21225L15.3 5.89L16.1679 5.54148C16.3987 5.44881 16.6625 5.53983 16.787 5.75509L17.0539 6.21651C17.1781 6.43108 17.1262 6.7042 16.9321 6.85839L16.2 7.44L15.5318 7.96555C15.3941 8.07383 15.3232 8.24623 15.3447 8.42004L15.45 9.27ZM10 6C7.79 6 6 7.79 6 10C6 12.21 7.79 14 10 14C12.21 14 14 12.21 14 10C14 7.79 12.21 6 10 6ZM10 12C8.9 12 8 11.1 8 10C8 8.9 8.9 8 10 8C11.1 8 12 8.9 12 10C12 11.1 11.1 12 10 12Z" fill="#7FA1F7"/>
</svg>
