<svg width="20" height="16" viewBox="0 0 20 16" fill="none" xmlns="http://www.w3.org/2000/svg">
<path d="M18.38 4.57012L17.15 6.42012C17.7432 7.6032 18.0336 8.91495 17.9952 10.2378C17.9568 11.5607 17.5908 12.8534 16.93 14.0001H3.06999C2.21116 12.5102 1.85528 10.7832 2.05513 9.07519C2.25497 7.36714 2.9999 5.76895 4.17947 4.51755C5.35904 3.26615 6.91046 2.42816 8.60373 2.12782C10.297 1.82747 12.042 2.08076 13.58 2.85012L15.43 1.62012C13.5465 0.412337 11.3123 -0.128874 9.08488 0.0830575C6.85744 0.294989 4.76543 1.24782 3.14348 2.78913C1.52153 4.33045 0.463351 6.37119 0.138207 8.58494C-0.186938 10.7987 0.23974 13.0575 1.34999 15.0001C1.5245 15.3024 1.77508 15.5537 2.07682 15.7292C2.37856 15.9046 2.72096 15.998 3.06999 16.0001H16.92C17.2724 16.0015 17.6189 15.9098 17.9245 15.7342C18.2301 15.5586 18.4838 15.3053 18.66 15.0001C19.5814 13.404 20.0438 11.5844 19.9961 9.74207C19.9485 7.89976 19.3926 6.10644 18.39 4.56012L18.38 4.57012ZM8.58999 11.4101C8.77574 11.5961 8.99631 11.7436 9.23911 11.8442C9.4819 11.9449 9.74216 11.9967 10.005 11.9967C10.2678 11.9967 10.5281 11.9449 10.7709 11.8442C11.0137 11.7436 11.2342 11.5961 11.42 11.4101L17.08 2.92012L8.58999 8.58012C8.40404 8.76587 8.25652 8.98644 8.15587 9.22924C8.05522 9.47204 8.00342 9.73229 8.00342 9.99512C8.00342 10.258 8.05522 10.5182 8.15587 10.761C8.25652 11.0038 8.40404 11.2244 8.58999 11.4101Z" fill="#222222"/>
</svg>
