<svg width="24" height="24" viewBox="0 0 24 24" fill="none" xmlns="http://www.w3.org/2000/svg">
<path d="M13.5 6C14.6 6 15.5 5.1 15.5 4C15.5 2.9 14.6 2 13.5 2C12.4 2 11.5 2.9 11.5 4C11.5 5.1 12.4 6 13.5 6ZM9.8 9.4L7.24 22.31C7.11 22.92 7.59 23.5 8.22 23.5H8.3C8.77 23.5 9.17 23.18 9.28 22.72L10.9 15.5L13 17.5V20.5C13 21.05 13.45 21.5 14 21.5C14.55 21.5 15 21.05 15 20.5V16.86C15 16.31 14.78 15.79 14.38 15.41L12.9 14L13.5 11C14.57 12.24 16.12 13.13 17.86 13.41C18.46 13.5 19 13.02 19 12.41C19 11.92 18.64 11.51 18.15 11.43C16.63 11.18 15.37 10.28 14.7 9.1L13.7 7.5C13.14 6.61 12.02 6.25 11.05 6.66L7.22 8.28C6.48 8.6 6 9.32 6 10.13V12.5C6 13.05 6.45 13.5 7 13.5C7.55 13.5 8 13.05 8 12.5V10.1L9.8 9.4Z" fill="white"/>
<path d="M15.5 19.5C15.5 18.9477 15.9477 18.5 16.5 18.5H18C18.5523 18.5 19 18.9477 19 19.5C19 20.0523 18.5523 20.5 18 20.5C17.7239 20.5 17.5 20.7239 17.5 21V22C17.5 22.8284 16.8284 23.5 16 23.5H15.5H13C12.4477 23.5 12 23.0523 12 22.5C12 21.9477 12.4477 21.5 13 21.5H15.5V19.5Z" fill="white"/>
</svg>
