<svg width="13" height="22" viewBox="0 0 13 22" fill="none" xmlns="http://www.w3.org/2000/svg">
<path d="M7.5 4C8.6 4 9.5 3.1 9.5 2C9.5 0.9 8.6 0 7.5 0C6.4 0 5.5 0.9 5.5 2C5.5 3.1 6.4 4 7.5 4ZM3.8 7.4L1.24 20.31C1.11 20.92 1.59 21.5 2.22 21.5H2.3C2.77 21.5 3.17 21.18 3.28 20.72L4.9 13.5L7 15.5V18.5C7 19.05 7.45 19.5 8 19.5C8.55 19.5 9 19.05 9 18.5V14.86C9 14.31 8.78 13.79 8.38 13.41L6.9 12L7.5 9C8.57 10.24 10.12 11.13 11.86 11.41C12.46 11.5 13 11.02 13 10.41C13 9.92 12.64 9.51 12.15 9.43C10.63 9.18 9.37 8.28 8.7 7.1L7.7 5.5C7.14 4.61 6.02 4.25 5.05 4.66L1.22 6.28C0.48 6.6 0 7.32 0 8.13V10.5C0 11.05 0.45 11.5 1 11.5C1.55 11.5 2 11.05 2 10.5V8.1L3.8 7.4Z" fill="white"/>
</svg>
