<svg width="42" height="56" viewBox="0 0 42 56" fill="none" xmlns="http://www.w3.org/2000/svg">
<path d="M25.4613 42.0129C28.4821 43.0474 31.1495 43.7063 34.9819 44.884C33.5096 63.4873 15.9181 56.0994 25.4613 42.0129ZM41.1678 24.9234C40.9694 19.3377 39.9856 12.0104 32.1487 13.1585C28.475 14.1172 25.7606 18.1518 24.484 25.1128C23.7828 28.9401 24.1906 34.3123 25.0176 37.5327C25.7728 39.8021 25.516 39.6626 26.3276 40.0936C29.4691 40.8013 32.5791 41.5847 35.7461 42.3835C38.9634 40.1115 41.6057 28.0494 41.1678 24.9234ZM16.9828 24.4948C17.8092 21.274 18.2169 15.9018 17.5161 12.0749C16.2404 5.11359 13.5257 1.07833 9.85134 0.120219C2.0145 -1.0279 1.03065 6.2993 0.83227 11.8854C0.394337 15.0108 3.03703 27.0737 6.25466 29.3453C9.42144 28.5464 12.531 27.7637 15.6734 27.0553C16.4841 26.6248 16.2273 26.7642 16.9828 24.4948ZM7.01787 31.8464C8.48963 50.4495 26.0811 43.0615 16.5381 28.9753C13.5173 30.0099 10.8502 30.6687 7.01787 31.8464Z" fill="white"/>
</svg>
