<svg width="24" height="24" viewBox="0 0 24 24" fill="none" xmlns="http://www.w3.org/2000/svg">
<path d="M18 5.75C18.2761 5.33579 18.1642 4.77614 17.75 4.5C17.3358 4.22386 16.7761 4.33579 16.5 4.75L15.5 6.25C15.2239 6.66421 15.3358 7.22386 15.75 7.5C16.1642 7.77614 16.7239 7.66421 17 7.25L18 5.75ZM13.5 4C14.0523 4 14.5 3.55228 14.5 3C14.5 2.44772 14.0523 2 13.5 2H10.5C9.94772 2 9.5 2.44772 9.5 3C9.5 3.55228 9.94772 4 10.5 4H13.5ZM12.5 9.74986C12.5 9.33565 12.1642 8.99986 11.75 8.99986C11.3358 8.99986 11 9.33565 11 9.74986V14.4337C11 14.7849 11.1843 15.1104 11.4855 15.2912L15.1385 17.4829C15.4769 17.686 15.9158 17.5779 16.1213 17.241C16.3297 16.8992 16.2185 16.4531 15.8742 16.2491L12.9903 14.5403C12.6864 14.3603 12.5 14.0332 12.5 13.68V9.74986ZM12 4.99986C7.03 4.99986 3 9.02986 3 13.9999C3 18.9699 7.02 22.9999 12 22.9999C16.97 22.9999 21 18.9699 21 13.9999C21 9.02986 16.97 4.99986 12 4.99986ZM12 20.9999C8.13 20.9999 5 17.8699 5 13.9999C5 10.1299 8.13 6.99986 12 6.99986C15.87 6.99986 19 10.1299 19 13.9999C19 17.8699 15.87 20.9999 12 20.9999Z" fill="#222222"/>
</svg>
