<svg width="22" height="20" viewBox="0 0 22 20" fill="none" xmlns="http://www.w3.org/2000/svg">
<path d="M11.0446 0C5.2813 0 0.614273 4.48 0.614273 10C0.614273 15.52 5.2813 20 11.0446 20C16.8184 20 21.4958 15.52 21.4958 10C21.4958 4.48 16.8184 0 11.0446 0ZM11.055 18C6.44023 18 2.70243 14.42 2.70243 10C2.70243 5.58 6.44023 2 11.055 2C15.6699 2 19.4077 5.58 19.4077 10C19.4077 14.42 15.6699 18 11.055 18ZM10.8254 5H10.7627C10.3451 5 10.011 5.32 10.011 5.72V10.44C10.011 10.79 10.1989 11.12 10.5226 11.3L14.8555 13.79C15.2105 13.99 15.6699 13.89 15.8787 13.55C16.0979 13.21 15.9831 12.76 15.6177 12.56L11.5771 10.26V5.72C11.5771 5.32 11.243 5 10.8254 5Z" fill="#7FA1F6"/>
</svg>
